<?xml version="1.0" encoding="UTF-8"?>
<svg id="Layer_2" data-name="Layer 2" xmlns="http://www.w3.org/2000/svg" viewBox="0 0 573.88 118.73">
  <defs>
    <style>
      .cls-1, .cls-2 {
        stroke-width: 0px;
      }

      .cls-2 {
        fill-rule: evenodd;
      }
    </style>
  </defs>
  <g id="KAiber">
    <g>
      <g>
        <g>
          <g>
            <g>
              <path class="cls-1" d="M442.43,60.7c3.06-2.17,4.56-5.84,4.56-11.15v-1.99c0-9.27-4.56-13.77-13.93-13.77h-14.18v57.63h14.73c9.19,0,14.25-5.03,14.25-14.17v-4.54c0-5.91-1.78-9.87-5.44-12.02ZM429.56,66.35h2.94c3.18,0,4.69.87,4.69,5.81v4.86c0,3.79-1.31,4.53-3.58,4.53h-4.06v-15.19ZM436.32,51.54c0,4.09-1.72,4.93-4.29,4.93h-2.46v-12.81h3.26c2.16,0,3.5.8,3.5,4.77v3.1Z"/>
              <path class="cls-1" d="M471.93,33.79h-14.45l-9.22,57.63h9.99l1.52-10.11h9.1l1.51,10.11h10.78l-9.22-57.63ZM467.37,71.83h-6.21l3.1-20.74,3.11,20.74Z"/>
            </g>
            <g>
              <polygon class="cls-1" points="493.8 33.79 483.12 33.79 483.12 91.42 508.2 91.42 508.2 81.54 493.8 81.54 493.8 33.79"/>
              <path class="cls-1" d="M519.25,33.79l-9.22,57.63h9.98l1.52-10.11h9.1l1.51,10.11h10.78l-9.22-57.63h-14.45ZM529.14,71.83h-6.21l3.1-20.74,3.11,20.74Z"/>
              <path class="cls-1" d="M568.43,60.7c3.07-2.17,4.57-5.84,4.57-11.15v-1.99c0-9.27-4.56-13.77-13.93-13.77h-14.17v57.63h14.73c9.19,0,14.25-5.03,14.25-14.17v-4.54c0-5.91-1.79-9.87-5.44-12.02ZM555.57,66.35h2.94c3.17,0,4.69.87,4.69,5.81v4.86c0,3.79-1.31,4.53-3.57,4.53h-4.06v-15.19ZM562.33,51.54c0,4.09-1.71,4.93-4.3,4.93h-2.46v-12.81h3.26c2.16,0,3.5.8,3.5,4.77v3.1Z"/>
            </g>
          </g>
          <path class="cls-2" d="M389.74,64.31c-1.31,3.18-4.48,5.45-8.15,5.45-4.86,0-8.78-3.94-8.78-8.78,0-4.1,2.87-7.57,6.69-8.52-.98-2.54-3.11-6.62-3.74-7.95-.63-1.32-2.06-9.66-2.37-11.3-.06-.39-3.77,2.16-3.79,2.29-.22.22-2.8,6.93-2.9,7.26l-.08,1.14s1.3.15,2,2.34c.72,2.21,2.93,10.24,2.93,10.24l-.62.57c2.77,9.25,1.79,13.24,3.02,15.93,1.61,3.88,2,3.35,3.35,6.58.96,2.33,2.04,11.56,2.41,11.98,1.48,1.87,2.3,3.36,2.3,4.43s-1.29,4.27-.82,6.08c.28,1.12.41,3.57.94,4,0,0,.46.94.24,1.33l-.17.51c.69,2.43,2.66,6.28.8,9.01-.38.55-1.08,1.17-1.63,1.49-.39.23-.62.3-.72.33-.11-.02-.3-.07-.59-.23-.43-.25-.54-.34-.75-.52-2.19-1.92-.54-5.26-.46-11.17-1.58-1.42-.51-2-.57-2.58-1.05-4.3-4.48-6.89-2.71-8.31-.44-1.44-1.32-3.21-1.28-3.19-1.42-.8-2.79-1.77-4.05-2.76-3.43-2.65-6.03-5.45-6.59-5.99-.91-1.02-2.5-2.03-2.83-2.88-.02,0-.03-.03-.06-.06-1.42-1.39-7.56-10.07-8.96-13.29l-1.01-.13-1.57-.23c-1.14-4.72-5.01-8.68-5.12-13.42-.03-1.82.83-5.65,1.13-6.42.32-.76,1.8-2.05,1.8-2.05v-1.27c-5.57.16-3.95-.4-4.93-2.57-.66-1.49-.2-1.82.04-2.86.74-3.04,3.25-7.79,4.27-9.92.33-1.09,1.39-3.71,1.39-3.71,1.15-2.34,2.1-3.98,2.99-5.14,2.28-3.04,4.06-2.81,7.64-3.14l.26-.36c.84-.04,1.52-.08,2.08-.14,2.6-.33,2.17-1.26,2.73-5.17-.72.29-.92-1.5-.92-1.5-.38-2.7.75-2.19,1.28-2.24.11-4.18.52-5.65,3.26-6.85.43-.2.62-.33,1.14-.46.38-.1.71-.13.85-.15.18.01.64.06,1.14.22.65.21.97.45,1.21.56.95.46,1.56,1.02,1.94,1.8,1.2.09,2.64,2.79.4,6.81.99.69.22,1.7-.49,2.82-.22.36-.45,1.02-1.1.98-.88,1.83-1.9,3.54-2.69,3.65-.22.29-.38,1.06-.04,1.42,1.14.52,2.53,1.2,3.22,1.86l.05.42c.88.52,1.34.94,2.24,1.53,2.37,1.49,5.28,4.16,4.92,13.3.68,2,.97,5.9,1.58,7.14,1.22,2.46,2.07,4.06,2.43,6.37,0,0,.36,3.59.82,3.85,2.44.57,1.74.8,2.07,1.25.39.48,1.8.45,1.8,1.77.5.65.87,1.3,1.13,2.01,0,0,.54,1.47.54,3.13s-.54,3.43-.54,3.43Z"/>
        </g>
        <path class="cls-1" d="M405.77,33.79v27.07l-7.3-27.07h-12.68v17.62c1.07.3,1.94.67,2.29,1.52.54.23,1.77.79,2.03,2.24.48.68.84,1.36,1.09,2.06.01.05.63,1.74.63,3.65s-.59,3.8-.62,3.89l-.04.14c-1.05,2.52-2.99,4.46-5.38,5.52v21h9.8v-34.09l9.21,34.09h10.68v-57.63h-9.72Z"/>
      </g>
      <g>
        <polygon class="cls-1" points="286.66 79.54 288.06 80.94 308.23 60.77 328.4 80.94 329.81 79.54 309.64 59.37 306.83 59.37 286.66 79.54"/>
        <polygon class="cls-1" points="329.81 39.2 328.4 37.79 308.23 57.96 288.06 37.79 286.66 39.2 306.83 59.37 306.83 59.37 309.64 59.37 309.64 59.37 329.81 39.2"/>
      </g>
      <g>
        <g>
          <path class="cls-1" d="M63.52,36.44v45.72h5.79v.67h-18.52v-.67h5.79v-45.72h-5.79v-.67h18.52v.67h-5.79ZM71.34,59.3c0,7.6,22.86,3.5,22.86,21.04v1.82h5.79v.67h-18.52v-.67h5.79v-3.16c0-15.66-16.64-12.5-16.64-19.7s16.64-4.03,16.64-19.7v-3.16h-5.79v-.67h18.52v.67h-5.79v1.82c0,17.55-22.86,13.45-22.86,21.04Z"/>
          <path class="cls-1" d="M129.04,71.27c-1.81,6.52-7.81,12.91-16.42,12.91-5.21,0-10.78-2.29-10.78-7.53,0-9.48,18.74-7.33,18.74-13.45,0-5.58-15.56-1.28-15.56-9.34,0-4.98,5.93-7.33,12.73-7.33,9.12,0,18.16,5.04,18.16,15.19v20.44h5.79v.67h-12.59v-11.56h-.07ZM129.11,65.82v-6.59c0-9.21-6.08-12.03-11.79-12.03s-11.58,1.95-11.58,6.66c0,7.4,15.56,2.89,15.56,9.34,0,5.78-12.52,5.31-12.52,13.24,0,3.7,2.68,6.12,6.66,6.12,7.16,0,13.67-7.8,13.67-16.74Z"/>
          <path class="cls-1" d="M143.14,82.83v-.67h5.79v-33.61h-5.79v-.67h12.59v34.29h5.79v.67h-18.38ZM147.2,38.6c0-2.35,1.88-4.17,4.41-4.17s4.49,1.82,4.49,4.17-1.95,4.17-4.49,4.17-4.41-1.82-4.41-4.17Z"/>
          <path class="cls-1" d="M170.06,78.8c-2.32,0-2.89,1.88-2.89,4.03h-.72v-46.39h-5.79v-.67l12.3-.07v23.13c2.17-8.87,9.12-12.3,15.48-12.3,8.32,0,15.27,5.85,15.27,16.74,0,13.45-10.35,20.91-18.38,20.91-6.8,0-11.29-5.38-15.27-5.38ZM197.2,65.69c0-8.47-4.12-16.94-12.37-16.94-7.45,0-11.87,6.79-11.87,16.74v1.95c0,9.75,5.5,16.07,12.37,16.07s11.87-6.52,11.87-17.82Z"/>
          <path class="cls-1" d="M230.55,46.53c6.66,0,12.95,2.42,12.95,7.19,0,8.61-20.84,5.51-20.91,11.77-.07,5.92,18.45,3.09,18.45,11.43,0,4.3-4.85,7.26-12.37,7.26-11.21,0-22.21-6.19-22.21-17.95,0-13.58,13.6-19.7,24.09-19.7ZM213.33,64.88c0,12.1,10.27,17.95,17.44,17.95,5.28,0,9.55-2.08,9.55-5.85,0-7.87-18.45-4.71-18.45-11.5,0-6.12,14.9-5.31,14.9-13.45,0-2.82-1.81-4.84-6.22-4.84-7.67,0-17.22,6.05-17.22,17.68Z"/>
          <path class="cls-1" d="M277.17,52.98c-10.42,0-18.45,3.63-18.45,17.08v12.1h5.79v.67h-18.38v-.67h5.79v-33.61h-5.79v-.67h12.59v15.87c2.39-9.88,10.2-16.47,18.45-17.21v6.45Z"/>
        </g>
        <path class="cls-1" d="M43.5,42.48c.02-1.14.03-2.31-.04-3.49-.15-2.26-.96-4.35-3-5.56-2.79-1.65-6.44-.69-8.25,1.9-.91,1.3-.98,2.72-.98,3.95,0,.94.04,1.9.07,2.91,0,0,.16,4.54-.09,6.68-.15,1.26-.37,2.64-.9,3.8-.1.22-.23.45-.42.59-.2.14-.47.19-.69.1-.18-.07-.33-.21-.47-.35-.92-.92-1.82-1.86-2.74-2.78-.2-.21-.41-.41-.61-.62-.7-.71-1.41-1.42-2.11-2.14-1.02-1.03-2.04-2.06-3.06-3.09-1.13-1.15-2.27-2.29-3.4-3.44-1.05-1.06-2.1-2.12-3.14-3.19-.76-.78-1.53-1.55-2.29-2.33-.99-1.01-1.92-2.02-3.31-2.49-1.78-.6-3.88-.29-5.44.76C.92,34.86.04,36.84,0,38.87c-.02.94.23,2.29.98,3.23,1.58,2.01,3.49,3.71,5.43,5.36,1.53,1.31,3.06,2.61,4.61,3.89,1.12.93,2.22,1.93,3.43,2.74,1.27.84,2.77,1.8,4.4,2.47,2.94,1.2,6.45,1.56,9.33.02.61-.33,1.1-.66,1.83-.46.48.14.89.42,1.33.65,2.69,1.44,6,.98,8.45-.72.97-.68,1.77-1.53,2.52-2.69,1.01-1.57,1.13-3.24,1.17-4.81.03-1.1.02-3.27.02-3.27h0s0-2.32.01-2.78ZM43.49,73.47h0s0-2.18-.02-3.28c-.04-1.58-.16-3.25-1.17-4.81-.75-1.16-1.55-2.02-2.52-2.69-2.45-1.71-5.76-2.17-8.45-.72-.44.23-.85.52-1.33.65-.73.21-1.22-.13-1.83-.46-2.89-1.54-6.39-1.18-9.33.02-1.63.66-3.13,1.62-4.4,2.47-1.21.8-2.32,1.81-3.43,2.74-1.55,1.29-3.08,2.59-4.61,3.89-1.94,1.65-3.84,3.35-5.43,5.36-.75.95-.99,2.29-.98,3.23.04,2.02.92,4,2.62,5.16,1.56,1.05,3.65,1.36,5.44.76,1.39-.47,2.32-1.47,3.31-2.49.76-.78,1.53-1.55,2.29-2.33,1.05-1.06,2.1-2.12,3.14-3.19,1.13-1.15,2.27-2.29,3.4-3.44,1.02-1.03,2.04-2.06,3.06-3.09.7-.71,1.41-1.42,2.11-2.14.2-.21.41-.41.61-.62.92-.92,1.82-1.86,2.74-2.78.14-.14.28-.28.47-.35.23-.09.5-.04.69.1.2.14.32.37.42.59.53,1.16.75,2.54.9,3.8.25,2.14.09,6.68.09,6.68-.04,1.01-.07,1.97-.07,2.91,0,1.22.07,2.64.98,3.95,1.81,2.59,5.46,3.55,8.25,1.9,2.04-1.2,2.86-3.3,3-5.56.08-1.18.06-2.35.04-3.49,0-.47-.01-2.77-.01-2.77Z"/>
      </g>
    </g>
  </g>
</svg>